<?xml version="1.0" encoding="UTF-8"?>
<svg width="744.09" height="744.09" viewBox="0 0 744.09448819 1052.3622047" xmlns="http://www.w3.org/2000/svg">
 <defs>
  <radialGradient id="a" cx="259.81" cy="210.76" r="94.1" gradientTransform="matrix(.85972 2.1896 -1.8502 .72648 426.4 -532.82)" gradientUnits="userSpaceOnUse">
   <stop offset="0"/>
   <stop stop-opacity="0" offset="1"/>
  </radialGradient>
 </defs>
 <g transform="matrix(.66746 -2.8508e-6 2.8508e-6 .66746 -58.993 250.33)" stroke="#000">
  <g transform="translate(-11.112 -9.0914)" stroke-width="6.5">
   <path d="m556.49 800.13c7.4477-30.187 14.971-60.97 13.611-92.297-1.0314-11.179-3.0393-23.918-12.352-31.34-7.7448-4.4702-16.774-1.4201-25.016-0.72189-14.433 0.2217-29.527-2.2334-43.3 3.3574-6.3633 4.1958-7.6204 13.765-3.4306 19.908 9.0023 28.46 4.2001 58.635 7.2653 87.851 0.70187 5.5731 2 11.162 4.7044 16.13" fill="#b3b3b3"/>
   <path d="m554.57 807.91c-0.22475 13.91-0.80642 27.469-4.0406 40.406-4.9642 19.857-4.577 24.244-28.284 24.244-1.9512 0-10.281 2.8507-12.122 1.0102-16.361-16.361-14.142-46.215-14.142-69.701" fill="#b3b3b3"/>
   <path transform="matrix(1.0147 0 0 .67261 30.164 259.24)" d="m528.31 785.68c0 21.2-17.186 38.386-38.386 38.386s-38.386-17.186-38.386-38.386 17.186-38.386 38.386-38.386 38.386 17.186 38.386 38.386z" fill="#808080" stroke-linecap="round" stroke-linejoin="round"/>
  </g>
  <path d="m489.92 848.31c44.786 30.547 112.9-36.748 140.15-13.882-10.615 61.355-94.923 65.022-139.37 38.953-11.061-4.5756-12.449-19.773-0.78201-25.072z" fill="#666" stroke-width="9.2"/>
  <g transform="matrix(-1 0 0 1 918.62 1.0842)">
   <g transform="translate(-11.112 -9.0914)" stroke-width="6.5">
    <path d="m556.49 800.13c7.4477-30.187 14.971-60.97 13.611-92.297-1.0314-11.179-3.0393-23.918-12.352-31.34-7.7448-4.4702-16.774-1.4201-25.016-0.72189-14.433 0.2217-29.527-2.2334-43.3 3.3574-6.3633 4.1958-7.6204 13.765-3.4306 19.908 9.0023 28.46 4.2001 58.635 7.2653 87.851 0.70187 5.5731 2 11.162 4.7044 16.13" fill="#b3b3b3"/>
    <path d="m554.57 807.91c-0.22475 13.91-0.80642 27.469-4.0406 40.406-4.9642 19.857-4.577 24.244-28.284 24.244-1.9512 0-10.281 2.8507-12.122 1.0102-16.361-16.361-14.142-46.215-14.142-69.701" fill="#b3b3b3"/>
    <path transform="matrix(1.0147 0 0 .67261 30.164 259.24)" d="m528.31 785.68c0 21.2-17.186 38.386-38.386 38.386s-38.386-17.186-38.386-38.386 17.186-38.386 38.386-38.386 38.386 17.186 38.386 38.386z" fill="#808080" stroke-linecap="round" stroke-linejoin="round"/>
   </g>
   <path d="m489.92 848.31c44.786 30.547 112.9-36.748 140.15-13.882-10.615 61.355-94.923 65.022-139.37 38.953-11.061-4.5756-12.449-19.773-0.78201-25.072z" fill="#666" stroke-width="9.2"/>
  </g>
 </g>
 <path transform="matrix(.66746 -2.8508e-6 2.8508e-6 .66746 -61.663 250.33)" d="m351.38 443.1c-17.986 75.609-3.515 136.21-1.2341 204.2 3.9345 20.057 24.274 35.23 45.556 34.147 55.954 7.4467 111.81-5.0796 167.7-6.5125 19.904-3.1504 29.45-25.581 24.473-42.817 0.43334-49.366-0.194-99.994-17.949-146.99-7.3724-26.533-4.8976-54.24-7.0411-81.268-4.6136-17.739-25.325-23.95-42.201-25.294-40.904-8.6578-86.52-14.837-125.22 4.634-20.733 10.904-32.461 31.517-44.499 50.033-1.8245 3.7947-2.5885 8.2749-0.92892 12.257" fill="#ccc" stroke="#000" stroke-width="10.613"/>
 <g transform="matrix(.31747 -1.618e-7 1.2266e-6 .40371 198.97 377.29)" fill="#ea0000">
  <path d="m132.86 313.79h38.571v494.29h-38.571z"/>
  <path transform="rotate(90)" d="m541.65-399.29h27.221v494.29h-27.221z"/>
 </g>
 <path transform="matrix(.66746 -2.8508e-6 2.8508e-6 .66746 -61.663 250.33)" d="m351.38 443.1c-17.986 75.609-3.515 136.21-1.2341 204.2 3.9345 20.057 24.274 35.23 45.556 34.147 55.954 7.4467 111.81-5.0796 167.7-6.5125 19.904-3.1504 29.45-25.581 24.473-42.817 0.43334-49.366-0.194-99.994-17.949-146.99-7.3724-26.533-4.8976-54.24-7.0411-81.268-4.6136-17.739-25.325-23.95-42.201-25.294-40.904-8.6578-86.52-14.837-125.22 4.634-20.733 10.904-32.461 31.517-44.499 50.033-1.8245 3.7947-2.5885 8.2749-0.92892 12.257" fill="none" stroke="#000" stroke-width="10.613"/>
 <g transform="matrix(.66746 -2.8508e-6 2.8508e-6 .66746 -58.617 250.33)" stroke="#000">
  <g transform="matrix(.70778 0 0 .60812 191 58.663)" fill="#b3b3b3" stroke-linecap="round" stroke-linejoin="round">
   <path d="m212.15 162.44 157.6-68.541 162.19 68.541v416.96l-162.19-44.266-157.6 44.266v-416.96z" stroke-width="19.968"/>
   <path d="m273.72 445.76h4.027v53.706h-4.027z" stroke-width="3.3534"/>
   <path d="m305.83 445.76h4.027v53.706h-4.027z" stroke-width="3.3534"/>
   <path d="m370.03 445.76h4.027v53.706h-4.027z" stroke-width="3.3534"/>
   <path d="m337.93 445.76h4.027v53.706h-4.027z" stroke-width="3.3534"/>
   <path d="m402.14 445.76h4.027v53.706h-4.027z" stroke-width="3.3534"/>
   <path d="m466.35 445.76h4.027v53.706h-4.027z" stroke-width="3.3534"/>
   <path d="m434.24 445.76h4.027v53.706h-4.027z" stroke-width="3.3534"/>
  </g>
  <path d="m364.23 225.96h180.11v21.383h-180.11z" fill="#333" stroke-linecap="round" stroke-linejoin="round" stroke-width="2.6194"/>
  <path d="m447.15 146.61c-7.0345 3.4532-13.117-6.0377-16.903-14.549-4.9265-7.1682-3.703-24.075 3.4712-26.058 6.4979-4.2541 4.2731-18.641 0.79549-25.627-4.4103-11.567-1.7285-27.811 5.2804-34.921 5.0915-7.6058 15.189-2.7905 17.012-16.861 3.8398-9.4057 11.969-16.046 18.516-9.8352 7.41 5.5776 15.488-5.5705 22.867 0.63967 6.7153 3.7027 13.206-2.2491 19.53-4.4413 6.5151 0.4654 10.294 10.81 16.252 13.677 6.5734-2.432 13.516 4.5929 12.828 15.417 3.8087 4.9018 13.359-1.5883 13.081 9.9138-2.4996 8.3853-8.4646 14.788-8.113 25.44-2.5504 10.39-9.9122 10.629-15.437 7.5833-8.4708-1.5288-17.188 3.2347-23.349 12.811-10.401 11.604-25.229 8.7354-34.062 24.587-4.0761 8.5712-6.991 21.241-14.438 23.024-5.7938 1.5325-11.558-2.9897-17.331-0.79828z" fill="#ea0000" stroke-width="7.2"/>
 </g>
 <g transform="matrix(.66746 -2.8508e-6 2.8508e-6 .66746 -61.663 250.33)" stroke="#000">
  <path d="m288.8 452.57-22.82 92.68 1.857 108.34 40.529 3.7928-8.436-109.31 30.797-99.295-41.927 3.7928z" fill="#b3b3b3" stroke-width="11.396"/>
  <path d="m321.91 385.1c-25.158-4.9496-51.776 17.385-56.466 47.799-0.86942 11.605 4.2822 23.802 13 29.022 16.492 1.5817 32.878-6.5307 49.297-2.1025 7.0313-0.10226 14.977 1.5479 20.977-4.0302 5.1634-7.3089 5.0188-18.653 11.727-24.589 9.1329-10.606 21.493-16.287 29.951-27.844 2.9433-7.2947-4.0134-16.619-10.305-13.818-19.433-0.58275-38.816-2.4826-58.182-4.4363z" fill="#808080" stroke-width="5.8308"/>
  <path d="m317.14 650.93c-10.167-5.9749-22.335-5.2354-33.666-6.185-8.7958-1.1212-17.968-4.0909-26.696-0.99688-8.3498 3.4395-12.644 12.76-12.905 21.378-0.80073 12.702 5.6435 26.53 17.726 31.725 9.4371 3.9307 20.044 1.6775 29.225-1.868 8.1864-2.6364 17.002-6.2562 21.521-14.064 3.296-5.3321 6.9429-10.845 7.79-17.181 0.15647-4.4552-1.4835-8.7002-2.9955-12.809z" fill="#999" stroke-width="10.2"/>
  <path d="m323.91 685.6c2.6369-4.885 2.081-10.597 2.3339-15.943 0.37706-4.157 1.6172-8.5224 0.0125-12.576-1.7608-3.8692-6.2186-5.73-10.278-5.7054-5.9891-0.1595-12.384 3.1085-14.621 8.8814-1.6877 4.5067-0.44642 9.4579 1.3784 13.716 1.3802 3.806 3.2338 7.8911 6.9839 9.8838 2.5647 1.4594 5.2207 3.0807 8.2156 3.3708 2.0985-2e-3 4.0675-0.84662 5.9745-1.6282z" fill="#999" stroke-width="4.8015"/>
  <g transform="matrix(-1 0 0 1 917.79 0)">
   <path d="m288.8 452.57-22.82 92.68 1.857 108.34 40.529 3.7928-8.436-109.31 30.797-99.295-41.927 3.7928z" fill="#b3b3b3" stroke-width="11.396"/>
   <path d="m321.91 385.1c-25.158-4.9496-51.776 17.385-56.466 47.799-0.86942 11.605 4.2822 23.802 13 29.022 16.492 1.5817 32.878-6.5307 49.297-2.1025 7.0313-0.10226 14.977 1.5479 20.977-4.0302 5.1634-7.3089 5.0188-18.653 11.727-24.589 9.1329-10.606 21.493-16.287 29.951-27.844 2.9433-7.2947-4.0134-16.619-10.305-13.818-19.433-0.58275-38.816-2.4826-58.182-4.4363z" fill="#808080" stroke-width="5.8308"/>
   <path d="m317.14 650.93c-10.167-5.9749-22.335-5.2354-33.666-6.185-8.7958-1.1212-17.968-4.0909-26.696-0.99688-8.3498 3.4395-12.644 12.76-12.905 21.378-0.80073 12.702 5.6435 26.53 17.726 31.725 9.4371 3.9307 20.044 1.6775 29.225-1.868 8.1864-2.6364 17.002-6.2562 21.521-14.064 3.296-5.3321 6.9429-10.845 7.79-17.181 0.15647-4.4552-1.4835-8.7002-2.9955-12.809z" fill="#999" stroke-width="10.2"/>
   <path d="m323.91 685.6c2.6369-4.885 2.081-10.597 2.3339-15.943 0.37706-4.157 1.6172-8.5224 0.0125-12.576-1.7608-3.8692-6.2186-5.73-10.278-5.7054-5.9891-0.1595-12.384 3.1085-14.621 8.8814-1.6877 4.5067-0.44642 9.4579 1.3784 13.716 1.3802 3.806 3.2338 7.8911 6.9839 9.8838 2.5647 1.4594 5.2207 3.0807 8.2156 3.3708 2.0985-2e-3 4.0675-0.84662 5.9745-1.6282z" fill="#999" stroke-width="4.8015"/>
  </g>
 </g>
 <g transform="matrix(.66746 -2.8508e-6 2.8508e-6 .66746 -61.663 250.33)">
  <path d="m145.71 490.93s59.576 64.286 102.86 64.286 108.57-64.286 108.57-64.286 26.647 328.57-111.43 328.57-100-328.57-100-328.57z" fill="#fff" stroke="#000" stroke-width="8.7"/>
  <path d="m170.18 656.47c4.5402 5.887 8.4121 12.395 13.751 17.612 4.3915 4.2913 7.4454 6.0694 12.523 9.5861 2.7925 1.2824 5.5018 2.772 8.3776 3.8473 15.577 5.8247 33.172 7.4582 49.653 6.7893 3.46-0.14042 6.8825-0.78323 10.324-1.1748 14.139-2.104 28.137-5.4331 41.442-10.811 5.64-2.2798 11.721-5.14 16.496-9.1284 1.1853-0.99005 2.0035-2.3627 3.0053-3.5441 0.43098-0.82008 11.831 5.3805 11.4 6.2005-1.3308 2.4053-2.2751 5.0791-3.9925 7.2159-4.5984 5.7214-11.785 10.368-18.115 13.583-14.065 7.144-29.483 10.907-44.936 13.264-6.7937 0.34857-13.579 1.0284-20.381 1.0457-18.019 0.046-37.548-3.4955-53.84-11.552-3.2603-1.6122-6.2755-3.6934-9.4133-5.54-2.4804-1.9758-5.0765-3.8099-7.4414-5.9273-8.3056-7.4367-14.687-16.901-18.935-27.257-0.29257-0.72519 9.7887-4.9344 10.081-4.2092z" fill="#f00" stroke="#fff" stroke-linecap="round" stroke-linejoin="round" stroke-width="13.01"/>
  <path d="m245.43 797.84c-11.994-17.581-20.088-38.795-24.789-59.257-1.5381-6.6951-2.4804-13.505-3.7205-20.258-3.7458-30.758-0.86624-61.144 9.6254-90.487 6.8167-19.065 10.551-23.825 20.511-41.14l12.249-16.501c0.68091-1.1809 17.941 8.136 17.26 9.3168l-10.57 15.372c-8.8686 16.011-12.102 20.463-18.536 37.847-9.8856 26.711-13.461 54.796-10.672 83.036 0.91369 6.3762 1.6091 12.785 2.7411 19.129 3.6402 20.4 10.488 39.955 16.454 59.77 0.23196 0.72203-10.322 3.896-10.554 3.1739z" fill="#f00" stroke="#fff" stroke-linecap="round" stroke-linejoin="round" stroke-width="12.923"/>
 </g>
 <path transform="matrix(.66746 -2.8508e-6 2.8508e-6 .66746 -61.663 250.33)" d="m345.71 160.22c2.2068 26.153 0.71428 52.26 0.71428 78.571 0 27.408-5.7143 54.739-5.7143 82.857 0 12.025 4.9997 20.713 7.8571 32.143 1.4259 5.7036-2.2963 24.847 1.4286 28.571 8.8318 8.8318 36.923 12.857 49.286 12.857 6.4796 0 41.1-5.5499 45.714-7.8572 1.581-0.79047 1.4286-7.5914 1.4286-9.2857 0-12.809 7.5787-26.412 14.286-37.143 14.668-23.47 21.724-52.105 29.286-78.571 1.9358-6.7753 5.8379-14.189 7.1429-20.714 0.93457-4.6729 0.64419-9.5795 1.4286-14.286 0.96813-5.8088 4.5324-11.454 6.4286-17.143 1.2362-3.7085 1.3599-8.9425 2.1429-12.857 2.0651-10.326 7.5434-22.677 13.571-30.714 2.6578-3.5438 9.8447-21.025 7.8571-25-4.1659-8.3318-26.137 0.28649-32.857-4.2857-16.799-11.429-34.185-18.418-62.143-11.429-3.4923 0.87306-34.464 11.726-37.857 12.857-5.5318 1.844-9.2506 5.4645-14.286 7.1429-4.5994 1.5331-8.9155 3.9155-12.143 7.1429-2.52 2.52-13.967 1.9302-18.571 5-1.4971 0.99804-3.453-2.2613-5-0.71429-0.75293 0.75292 1.2197 1.813 1.4286 2.8571 0.0439 0.21925-2.1035 2.7785-2.1429 2.8572" fill="url(#a)"/>
 <g transform="matrix(.41372 .33664 -.33664 .41372 772.54 555.58)" stroke="#000">
  <path transform="translate(-10 7.1429)" d="m-410 593.79c-25.98 8.368 7.562 33.053-5.8055 47.04-1.6719 17.823 16.894 30.632 1.3575 47.134-7.7783 16.055-13.364 42.39 8.9529 49.372 14.877 13.878 37.337 8.2382 33.44-14.844 1.3026-16.082 27.054-25.218 9.6974-42.79-20.692-16.599 5.8476-37.224 2.6216-56.686 1.7519-23.155-23.594-51.264-45.836-32.04-1.545 0.82483-2.95 1.8783-4.4272 2.8133z"/>
  <path transform="translate(-10 7.1429)" d="m-344.63 582.79c-35.207-15.041-143.54-2.0781-100.62 20.143 34.228 12.655 139.92 6.1463 112.49-17.661l-7.447-2.3942-10.274-1.2434" fill="#b3b3b3" stroke-width="5.277"/>
  <path d="m-438.57 596.65 10-465.71 34.286-98.571 42.857 98.571-2.8571 471.43-84.286-5.7143z" fill="#999" stroke-width="5.2"/>
  <path d="m-371.1 593.75 0.74375-340.43 2.5499-72.054 3.1874 72.054-0.21249 344.61-6.2686-4.177z" fill="#fff" stroke-width=".23316"/>
  <path d="m-387.54 593.72 0.74596-285.59 2.5575-60.446 3.1969 60.446-0.21313 289.09-6.2873-3.5041z" fill="#fff" stroke-width=".21388"/>
  <path d="m-403.28 592.96 0.75205-160.01 2.5784-33.867 3.223 33.867-0.21487 161.97-6.3387-1.9633z" fill="#fff" stroke-width=".16074"/>
 </g>
</svg>
